<svg xmlns="http://www.w3.org/2000/svg" xmlns:xlink="http://www.w3.org/1999/xlink" width="500" zoomAndPan="magnify" viewBox="0 0 375 374.999991" height="500" preserveAspectRatio="xMidYMid meet" version="1.0"><defs><clipPath id="35c0736de7"><path d="M 187.5 0 C 83.945312 0 0 83.945312 0 187.5 C 0 291.054688 83.945312 375 187.5 375 C 291.054688 375 375 291.054688 375 187.5 C 375 83.945312 291.054688 0 187.5 0 Z M 187.5 0 " clip-rule="nonzero"/></clipPath><clipPath id="d5b59459da"><path d="M 91.3125 75 L 284 75 L 284 300 L 91.3125 300 Z M 91.3125 75 " clip-rule="nonzero"/></clipPath></defs><g clip-path="url(#35c0736de7)"><path stroke-linecap="butt" transform="matrix(0.75, 0, 0, 0.75, 0.0000045, 0)" fill="none" stroke-linejoin="miter" d="M 249.999994 0 C 111.927078 0 -0.000006 111.927084 -0.000006 250 C -0.000006 388.072917 111.927078 500.000001 249.999994 500.000001 C 388.072911 500.000001 499.999995 388.072917 499.999995 250 C 499.999995 111.927084 388.072911 0 249.999994 0 Z M 249.999994 0 " stroke="#2e3b40" stroke-width="40" stroke-opacity="1" stroke-miterlimit="4"/></g><g clip-path="url(#d5b59459da)"><path fill="#2e3b40" d="M 282.117188 155.925781 C 274.851562 150.824219 245.191406 149.5625 227.058594 149.277344 L 226.277344 146.996094 C 263.953125 139.160156 279.300781 120.949219 280.640625 113.589844 C 282.128906 105.398438 272.113281 100.929688 261.835938 99.105469 C 256.535156 98.164062 252.714844 96.871094 250.257812 95.839844 C 248.542969 95.117188 248.097656 92.890625 249.414062 91.570312 L 263.632812 77.351562 C 263.890625 77.09375 264.035156 76.742188 264.035156 76.378906 C 264.035156 75.617188 263.417969 75 262.65625 75 L 221.003906 75 C 219.125 75 217.332031 75.777344 216.046875 77.148438 L 161.394531 135.5 C 161.039062 135.878906 160.535156 136.074219 160.019531 136.042969 C 155.109375 135.734375 146.167969 134.03125 142.753906 137.65625 C 142.148438 138.300781 141.777344 139.132812 141.714844 140.019531 C 141.410156 144.257812 138.375 150.753906 137.003906 153.492188 C 136.605469 154.292969 135.8125 154.8125 134.925781 154.867188 L 108.824219 156.386719 C 108.613281 156.398438 108.445312 156.574219 108.445312 156.789062 L 108.445312 162.476562 C 108.445312 162.933594 108.566406 163.382812 108.800781 163.773438 L 109.007812 164.125 C 109.480469 164.929688 109.730469 165.851562 109.730469 166.789062 L 109.730469 170.894531 C 109.730469 176.628906 105.078125 181.28125 99.34375 181.28125 L 95.429688 181.28125 C 93.183594 181.28125 91.363281 183.101562 91.363281 185.347656 L 91.363281 192.734375 C 91.363281 192.984375 91.507812 193.214844 91.738281 193.3125 C 92.484375 193.628906 92.519531 194.09375 92.414062 194.441406 C 92.234375 195.003906 92.160156 195.59375 92.160156 196.1875 C 92.160156 196.558594 92.160156 196.957031 92.160156 197.292969 C 92.160156 197.8125 92.472656 198.277344 92.953125 198.472656 L 121.128906 209.84375 C 122.257812 210.296875 123.015625 211.367188 123.070312 212.585938 L 125.03125 256.722656 C 125.035156 256.789062 125.074219 256.851562 125.136719 256.878906 L 125.210938 256.914062 C 125.273438 256.941406 125.316406 257.007812 125.316406 257.078125 L 125.316406 258.894531 C 125.316406 259.085938 125.433594 259.253906 125.609375 259.320312 L 127.261719 259.941406 L 127.261719 260.644531 C 127.261719 260.644531 123.957031 261.164062 123.773438 263.714844 C 123.6875 264.863281 124.390625 265.613281 125.300781 265.933594 C 126.773438 266.449219 128.457031 265.605469 129.011719 264.148438 C 129.292969 263.410156 129.316406 262.925781 129.285156 262.644531 C 129.261719 262.441406 129.351562 262.242188 129.523438 262.132812 L 130.777344 261.3125 C 130.863281 261.253906 130.917969 261.15625 130.917969 261.050781 L 130.917969 260.835938 C 130.917969 260.523438 131.128906 260.25 131.433594 260.171875 L 133.242188 259.699219 C 133.4375 259.648438 133.578125 259.476562 133.582031 259.273438 L 133.632812 257.363281 C 133.636719 257.277344 133.699219 257.203125 133.789062 257.191406 C 133.875 257.175781 133.9375 257.105469 133.941406 257.019531 L 135.386719 217.976562 C 135.425781 216.835938 136.589844 216.082031 137.652344 216.511719 L 155.136719 223.566406 C 155.847656 223.851562 156.320312 224.535156 156.335938 225.300781 L 157.246094 265.621094 L 153.179688 267.132812 C 152.773438 267.28125 152.507812 267.667969 152.507812 268.101562 L 152.527344 273.378906 L 146.71875 273.269531 C 146.460938 273.265625 146.199219 273.332031 145.988281 273.480469 C 145.742188 273.648438 145.503906 273.941406 145.527344 274.445312 C 145.550781 275.046875 145.976562 275.285156 146.3125 275.378906 C 146.492188 275.425781 146.679688 275.441406 146.863281 275.429688 L 153.976562 275.058594 L 154.726562 275.488281 L 149.671875 276.101562 C 149.507812 276.121094 149.347656 276.164062 149.203125 276.246094 C 148.933594 276.394531 148.609375 276.707031 148.691406 277.324219 C 148.832031 278.359375 149.546875 278.242188 149.917969 278.1875 C 151.511719 277.9375 155.511719 277.308594 157.382812 277.011719 L 157.652344 277.167969 L 154.492188 278.722656 C 153.855469 279.035156 153.761719 279.933594 154.347656 280.339844 C 154.523438 280.460938 154.746094 280.566406 155.035156 280.648438 C 155.722656 280.839844 156.460938 280.761719 157.113281 280.464844 L 160.621094 278.867188 L 164.113281 280.867188 C 164.753906 281.234375 165.492188 281.386719 166.222656 281.296875 L 173.015625 280.492188 C 173.511719 280.433594 173.886719 280.011719 173.886719 279.511719 L 173.886719 273.476562 C 173.886719 273.113281 173.691406 272.785156 173.375 272.609375 L 170.550781 271.050781 L 186.21875 229.40625 C 186.957031 230.546875 187.8125 231.5625 188.328125 232.140625 C 188.636719 232.484375 188.816406 232.929688 188.835938 233.390625 L 191.078125 289.53125 C 191.082031 289.597656 191.117188 289.65625 191.171875 289.6875 L 191.375 289.804688 C 191.425781 289.832031 191.460938 289.882812 191.46875 289.941406 L 191.824219 292.558594 C 191.859375 292.839844 192.039062 293.082031 192.296875 293.199219 L 192.683594 293.378906 C 192.894531 293.476562 193.007812 293.710938 192.953125 293.9375 L 192.5625 295.539062 C 192.421875 296.117188 192.734375 296.703125 193.289062 296.917969 L 193.328125 296.933594 C 193.488281 296.996094 193.605469 297.136719 193.632812 297.308594 C 193.914062 298.894531 195.40625 300 197.058594 299.742188 C 197.964844 299.601562 198.75 299.023438 199.210938 298.226562 L 200.101562 296.675781 C 200.347656 296.292969 200.078125 295.789062 199.625 295.777344 C 199.273438 295.769531 199.015625 295.4375 199.101562 295.097656 L 199.378906 293.988281 C 199.417969 293.820312 199.542969 293.6875 199.707031 293.640625 L 200.441406 293.414062 C 200.761719 293.3125 200.992188 293.03125 201.023438 292.695312 L 201.214844 290.664062 C 201.222656 290.582031 201.285156 290.511719 201.367188 290.496094 C 201.449219 290.480469 201.515625 290.40625 201.515625 290.320312 L 203.773438 234.050781 C 203.789062 233.636719 204.101562 233.292969 204.507812 233.230469 C 204.863281 233.179688 205.140625 232.898438 205.234375 232.558594 C 206.90625 226.425781 218.125 223.980469 220.109375 223.597656 C 220.285156 223.5625 220.40625 223.410156 220.40625 223.234375 L 220.40625 221.015625 C 220.40625 220.824219 220.554688 220.660156 220.746094 220.640625 L 234.792969 219.28125 C 234.914062 219.269531 235.003906 219.167969 235.003906 219.050781 L 235.003906 214.449219 C 235.003906 214.246094 235.167969 214.082031 235.367188 214.082031 L 235.453125 214.082031 C 235.660156 214.082031 235.828125 213.914062 235.816406 213.703125 C 235.757812 212.4375 236.011719 208.429688 241.53125 208.597656 C 245.648438 208.722656 247.496094 207.574219 248.304688 206.699219 C 248.6875 206.28125 248.890625 205.726562 248.890625 205.15625 L 248.890625 204 C 248.890625 203.179688 249.238281 202.402344 249.84375 201.851562 L 249.871094 201.828125 C 250.089844 201.632812 250.433594 201.6875 250.578125 201.945312 C 251.035156 202.753906 251.289062 203.664062 251.320312 204.589844 L 252.722656 250.867188 C 252.726562 250.976562 252.792969 251.074219 252.894531 251.113281 L 253.015625 251.160156 C 253.117188 251.203125 253.1875 251.300781 253.1875 251.414062 L 253.199219 252.742188 C 253.203125 252.933594 253.3125 253.109375 253.488281 253.191406 L 254.554688 253.683594 C 254.699219 253.75 254.789062 253.894531 254.789062 254.050781 L 254.789062 254.691406 C 254.789062 255.050781 254.96875 255.390625 255.269531 255.59375 L 256.082031 256.140625 C 256.082031 256.140625 255.683594 260.359375 258.859375 260.359375 C 262.035156 260.359375 261.753906 257.472656 261.753906 256.84375 C 261.753906 255.910156 260.804688 255.386719 260.367188 255.195312 C 260.234375 255.136719 260.152344 255.007812 260.152344 254.863281 L 260.152344 254.660156 C 260.152344 254.484375 260.265625 254.328125 260.4375 254.273438 L 261.605469 253.917969 C 261.800781 253.859375 261.9375 253.683594 261.957031 253.480469 L 262.085938 251.921875 C 262.097656 251.792969 262.199219 251.6875 262.328125 251.671875 C 262.460938 251.65625 262.5625 251.546875 262.570312 251.410156 L 264.589844 199.921875 C 264.621094 199.113281 265.285156 198.476562 266.09375 198.476562 L 273.707031 198.476562 C 274.285156 198.476562 274.753906 198.007812 274.753906 197.429688 L 274.753906 196.910156 C 274.753906 196.644531 274.976562 196.4375 275.238281 196.449219 C 276.972656 196.53125 278.273438 196.371094 279.253906 196.089844 C 280.988281 195.589844 282.171875 193.992188 282.171875 192.1875 L 282.171875 191.457031 C 282.171875 191.1875 282.296875 190.933594 282.511719 190.765625 C 283.050781 190.351562 283.335938 189.894531 283.484375 189.566406 C 283.585938 189.34375 283.636719 189.101562 283.636719 188.855469 L 283.636719 158.875 C 283.617188 157.707031 283.070312 156.597656 282.117188 155.925781 Z M 174.757812 225.800781 L 178.347656 227.625 L 169.890625 247.585938 L 170.316406 227.574219 C 170.335938 226.59375 171.085938 225.78125 172.0625 225.683594 L 173.414062 225.550781 C 173.878906 225.503906 174.34375 225.589844 174.757812 225.800781 Z M 164.199219 261.011719 L 162.371094 265.332031 L 162.789062 227.070312 C 162.792969 226.808594 162.992188 226.589844 163.253906 226.566406 C 163.554688 226.535156 163.816406 226.769531 163.820312 227.070312 Z M 162.726562 266.738281 L 164.226562 263.195312 L 164.277344 267.59375 Z M 169.761719 270.621094 L 169.40625 270.425781 L 169.835938 249.949219 L 179.171875 227.917969 C 179.359375 227.953125 179.546875 227.972656 179.738281 227.972656 L 184.714844 227.972656 C 185.082031 227.972656 185.421875 228.152344 185.628906 228.453125 Z M 222.132812 149.21875 C 219.582031 149.199219 217.429688 149.195312 215.820312 149.199219 C 215.574219 149.199219 215.550781 148.84375 215.792969 148.808594 C 217.96875 148.503906 220.082031 148.167969 222.132812 147.796875 Z M 222.132812 149.21875 " fill-opacity="1" fill-rule="evenodd"/></g><path fill="#ffffff" d="M 159.242188 205.566406 L 157.566406 205.566406 L 157.566406 204.980469 L 155.890625 204.980469 L 155.890625 204.394531 L 154.214844 204.394531 L 154.214844 203.808594 L 152.539062 203.808594 L 152.539062 203.21875 L 150.863281 203.21875 L 150.863281 202.636719 L 149.1875 202.636719 L 149.1875 202.046875 L 147.515625 202.046875 L 147.515625 201.460938 L 145.835938 201.460938 L 145.835938 200.875 L 144.160156 200.875 L 144.160156 200.289062 L 142.484375 200.289062 L 142.484375 199.703125 L 140.808594 199.703125 L 140.808594 199.117188 L 139.136719 199.117188 L 139.136719 198.53125 L 137.460938 198.53125 L 137.460938 197.941406 L 135.785156 197.941406 L 135.785156 197.359375 L 134.109375 197.359375 L 134.109375 196.769531 L 132.433594 196.769531 L 132.433594 196.183594 L 130.757812 196.183594 L 130.757812 195.597656 L 129.082031 195.597656 L 129.082031 195.011719 L 127.40625 195.011719 L 127.40625 194.425781 L 125.730469 194.425781 L 125.730469 193.835938 L 124.054688 193.835938 L 124.054688 193.253906 L 122.378906 193.253906 L 122.378906 192.664062 L 120.703125 192.664062 L 120.703125 192.078125 L 119.027344 192.078125 L 119.027344 191.492188 L 117.351562 191.492188 L 117.351562 190.90625 L 115.675781 190.90625 L 115.675781 190.320312 L 114 190.320312 L 114 189.734375 L 112.328125 189.734375 L 112.328125 189.148438 L 110.648438 189.148438 L 110.648438 188.558594 L 108.976562 188.558594 L 108.976562 187.972656 L 107.296875 187.972656 L 107.296875 187.386719 L 105.300781 187.386719 L 105.300781 186.855469 L 98.335938 186.855469 L 98.335938 190.144531 L 159.242188 212.59375 Z M 159.242188 205.566406 " fill-opacity="1" fill-rule="evenodd"/></svg>