<svg xmlns="http://www.w3.org/2000/svg" xmlns:xlink="http://www.w3.org/1999/xlink" width="500" zoomAndPan="magnify" viewBox="0 0 375 74.999997" height="100" preserveAspectRatio="xMidYMid meet" version="1.0"><defs><g/><clipPath id="af91399dd0"><path d="M 10.074219 7.5 L 70.074219 7.5 L 70.074219 67.5 L 10.074219 67.5 Z M 10.074219 7.5 " clip-rule="nonzero"/></clipPath><clipPath id="17a9cb719f"><path d="M 40.074219 7.5 C 23.503906 7.5 10.074219 20.929688 10.074219 37.5 C 10.074219 54.070312 23.503906 67.5 40.074219 67.5 C 56.644531 67.5 70.074219 54.070312 70.074219 37.5 C 70.074219 20.929688 56.644531 7.5 40.074219 7.5 Z M 40.074219 7.5 " clip-rule="nonzero"/></clipPath><clipPath id="73bc85fdba"><path d="M 0.0742188 0.5 L 60.074219 0.5 L 60.074219 60.5 L 0.0742188 60.5 Z M 0.0742188 0.5 " clip-rule="nonzero"/></clipPath><clipPath id="655cf70077"><path d="M 30.074219 0.5 C 13.503906 0.5 0.0742188 13.929688 0.0742188 30.5 C 0.0742188 47.070312 13.503906 60.5 30.074219 60.5 C 46.644531 60.5 60.074219 47.070312 60.074219 30.5 C 60.074219 13.929688 46.644531 0.5 30.074219 0.5 Z M 30.074219 0.5 " clip-rule="nonzero"/></clipPath><clipPath id="213b015de6"><rect x="0" width="61" y="0" height="61"/></clipPath><clipPath id="cb6ac1368b"><path d="M 23.796875 18.769531 L 56 18.769531 L 56 56.269531 L 23.796875 56.269531 Z M 23.796875 18.769531 " clip-rule="nonzero"/></clipPath></defs><g clip-path="url(#af91399dd0)"><g clip-path="url(#17a9cb719f)"><g transform="matrix(1, 0, 0, 1, 10, 7)"><g clip-path="url(#213b015de6)"><g clip-path="url(#73bc85fdba)"><g clip-path="url(#655cf70077)"><path fill="#2e3b40" d="M 0.0742188 0.5 L 60.074219 0.5 L 60.074219 60.5 L 0.0742188 60.5 Z M 0.0742188 0.5 " fill-opacity="1" fill-rule="nonzero"/></g></g></g></g><path stroke-linecap="butt" transform="matrix(0.75, 0, 0, 0.75, 10.074314, 7.499998)" fill="none" stroke-linejoin="miter" d="M 39.999876 0.00000215 C 17.906125 0.00000215 -0.000126836 17.906254 -0.000126836 40.000005 C -0.000126836 62.093757 17.906125 80.000009 39.999876 80.000009 C 62.093628 80.000009 79.99988 62.093757 79.99988 40.000005 C 79.99988 17.906254 62.093628 0.00000215 39.999876 0.00000215 Z M 39.999876 0.00000215 " stroke="#d7dadb" stroke-width="8" stroke-opacity="1" stroke-miterlimit="4"/></g></g><g clip-path="url(#cb6ac1368b)"><path fill="#d7dadb" d="M 55.597656 32.257812 C 54.386719 31.40625 49.441406 31.199219 46.421875 31.148438 L 46.289062 30.769531 C 52.570312 29.464844 55.128906 26.429688 55.351562 25.203125 C 55.597656 23.835938 53.929688 23.09375 52.21875 22.789062 C 51.332031 22.632812 50.695312 22.414062 50.289062 22.242188 C 50 22.125 49.925781 21.75 50.144531 21.53125 L 52.515625 19.164062 C 52.558594 19.121094 52.582031 19.0625 52.582031 19 C 52.582031 18.875 52.480469 18.769531 52.351562 18.769531 L 45.410156 18.769531 C 45.097656 18.769531 44.800781 18.898438 44.585938 19.128906 L 35.476562 28.851562 C 35.417969 28.917969 35.332031 28.949219 35.246094 28.945312 C 34.429688 28.894531 32.9375 28.609375 32.371094 29.214844 C 32.269531 29.320312 32.207031 29.460938 32.195312 29.605469 C 32.144531 30.3125 31.640625 31.394531 31.410156 31.851562 C 31.34375 31.984375 31.214844 32.074219 31.066406 32.082031 L 26.714844 32.335938 C 26.679688 32.335938 26.652344 32.367188 26.652344 32.402344 L 26.652344 33.351562 C 26.652344 33.425781 26.671875 33.5 26.710938 33.566406 L 26.746094 33.625 C 26.824219 33.757812 26.867188 33.914062 26.867188 34.070312 L 26.867188 34.753906 C 26.867188 35.707031 26.089844 36.484375 25.132812 36.484375 L 24.480469 36.484375 C 24.109375 36.484375 23.804688 36.789062 23.804688 37.160156 L 23.804688 38.394531 C 23.804688 38.433594 23.828125 38.472656 23.867188 38.488281 C 23.992188 38.542969 23.996094 38.621094 23.980469 38.675781 C 23.949219 38.769531 23.9375 38.871094 23.9375 38.96875 C 23.9375 39.03125 23.9375 39.097656 23.9375 39.152344 C 23.9375 39.238281 23.988281 39.316406 24.070312 39.347656 L 28.765625 41.246094 C 28.953125 41.320312 29.078125 41.5 29.089844 41.699219 L 29.414062 49.058594 C 29.417969 49.070312 29.421875 49.078125 29.433594 49.082031 L 29.445312 49.089844 C 29.457031 49.09375 29.464844 49.105469 29.464844 49.117188 L 29.464844 49.417969 C 29.464844 49.449219 29.484375 49.480469 29.511719 49.492188 L 29.789062 49.59375 L 29.789062 49.710938 C 29.789062 49.710938 29.238281 49.796875 29.207031 50.222656 C 29.191406 50.414062 29.308594 50.539062 29.460938 50.59375 C 29.707031 50.679688 29.988281 50.539062 30.078125 50.296875 C 30.125 50.171875 30.128906 50.089844 30.125 50.042969 C 30.121094 50.011719 30.136719 49.976562 30.164062 49.957031 L 30.375 49.824219 C 30.386719 49.8125 30.398438 49.796875 30.398438 49.777344 L 30.398438 49.742188 C 30.398438 49.691406 30.433594 49.644531 30.484375 49.632812 L 30.785156 49.554688 C 30.816406 49.546875 30.839844 49.515625 30.839844 49.480469 L 30.847656 49.164062 C 30.851562 49.148438 30.859375 49.136719 30.875 49.136719 C 30.890625 49.132812 30.898438 49.121094 30.902344 49.105469 L 31.140625 42.601562 C 31.148438 42.410156 31.34375 42.285156 31.519531 42.355469 L 34.433594 43.53125 C 34.550781 43.578125 34.628906 43.691406 34.632812 43.820312 L 34.785156 50.539062 L 34.105469 50.792969 C 34.039062 50.816406 33.996094 50.882812 33.996094 50.953125 L 34 51.832031 L 33.03125 51.816406 C 32.988281 51.816406 32.945312 51.824219 32.910156 51.851562 C 32.867188 51.878906 32.828125 51.925781 32.832031 52.011719 C 32.835938 52.109375 32.90625 52.152344 32.964844 52.167969 C 32.992188 52.175781 33.023438 52.175781 33.054688 52.175781 L 34.238281 52.113281 L 34.363281 52.183594 L 33.523438 52.289062 C 33.496094 52.289062 33.46875 52.296875 33.445312 52.3125 C 33.398438 52.335938 33.34375 52.386719 33.359375 52.492188 C 33.382812 52.664062 33.5 52.644531 33.5625 52.636719 C 33.828125 52.59375 34.496094 52.488281 34.808594 52.4375 L 34.851562 52.464844 L 34.324219 52.722656 C 34.21875 52.777344 34.203125 52.925781 34.300781 52.992188 C 34.332031 53.011719 34.367188 53.03125 34.417969 53.046875 C 34.53125 53.078125 34.652344 53.0625 34.761719 53.015625 L 35.347656 52.75 L 35.929688 53.082031 C 36.035156 53.144531 36.160156 53.167969 36.28125 53.152344 L 37.414062 53.019531 C 37.496094 53.007812 37.558594 52.9375 37.558594 52.855469 L 37.558594 51.847656 C 37.558594 51.789062 37.527344 51.734375 37.472656 51.707031 L 37.003906 51.445312 L 39.613281 44.503906 C 39.738281 44.695312 39.878906 44.863281 39.964844 44.960938 C 40.015625 45.019531 40.046875 45.089844 40.050781 45.167969 L 40.421875 54.527344 C 40.425781 54.535156 40.429688 54.546875 40.4375 54.550781 L 40.472656 54.570312 C 40.480469 54.574219 40.488281 54.585938 40.488281 54.59375 L 40.546875 55.03125 C 40.554688 55.078125 40.582031 55.117188 40.625 55.136719 L 40.691406 55.167969 C 40.726562 55.183594 40.746094 55.222656 40.734375 55.261719 L 40.671875 55.527344 C 40.648438 55.621094 40.699219 55.722656 40.792969 55.757812 L 40.796875 55.757812 C 40.824219 55.769531 40.84375 55.792969 40.847656 55.820312 C 40.894531 56.085938 41.144531 56.269531 41.421875 56.226562 C 41.570312 56.203125 41.703125 56.109375 41.777344 55.972656 L 41.925781 55.714844 C 41.96875 55.652344 41.921875 55.570312 41.847656 55.566406 C 41.789062 55.566406 41.746094 55.511719 41.761719 55.453125 L 41.808594 55.269531 C 41.8125 55.242188 41.835938 55.21875 41.863281 55.210938 L 41.984375 55.171875 C 42.039062 55.15625 42.074219 55.109375 42.082031 55.054688 L 42.113281 54.714844 C 42.113281 54.699219 42.125 54.6875 42.136719 54.6875 C 42.152344 54.683594 42.164062 54.671875 42.164062 54.65625 L 42.539062 45.277344 C 42.542969 45.210938 42.59375 45.152344 42.664062 45.140625 C 42.722656 45.132812 42.765625 45.085938 42.78125 45.03125 C 43.0625 44.007812 44.929688 43.601562 45.261719 43.535156 C 45.292969 43.53125 45.3125 43.503906 45.3125 43.476562 L 45.3125 43.105469 C 45.3125 43.074219 45.335938 43.046875 45.367188 43.042969 L 47.710938 42.816406 C 47.730469 42.816406 47.746094 42.796875 47.746094 42.777344 L 47.746094 42.011719 C 47.746094 41.976562 47.773438 41.949219 47.804688 41.949219 L 47.820312 41.949219 C 47.855469 41.949219 47.882812 41.921875 47.878906 41.886719 C 47.871094 41.675781 47.914062 41.007812 48.832031 41.035156 C 49.519531 41.058594 49.828125 40.867188 49.960938 40.71875 C 50.023438 40.652344 50.058594 40.558594 50.058594 40.464844 L 50.058594 40.269531 C 50.058594 40.132812 50.117188 40.003906 50.21875 39.914062 L 50.222656 39.910156 C 50.257812 39.875 50.316406 39.882812 50.339844 39.925781 C 50.417969 40.0625 50.460938 40.214844 50.464844 40.367188 L 50.699219 48.082031 C 50.699219 48.097656 50.710938 48.117188 50.726562 48.121094 L 50.746094 48.128906 C 50.765625 48.136719 50.773438 48.152344 50.773438 48.171875 L 50.777344 48.394531 C 50.777344 48.425781 50.796875 48.457031 50.824219 48.46875 L 51.003906 48.550781 C 51.027344 48.5625 51.042969 48.585938 51.042969 48.613281 L 51.042969 48.71875 C 51.042969 48.777344 51.070312 48.835938 51.121094 48.871094 L 51.257812 48.960938 C 51.257812 48.960938 51.191406 49.664062 51.71875 49.664062 C 52.25 49.664062 52.203125 49.183594 52.203125 49.078125 C 52.203125 48.921875 52.042969 48.835938 51.972656 48.804688 C 51.949219 48.792969 51.9375 48.773438 51.9375 48.746094 L 51.9375 48.714844 C 51.9375 48.683594 51.953125 48.65625 51.984375 48.648438 L 52.179688 48.589844 C 52.210938 48.582031 52.234375 48.550781 52.238281 48.515625 L 52.257812 48.257812 C 52.261719 48.234375 52.277344 48.21875 52.296875 48.214844 C 52.320312 48.214844 52.335938 48.195312 52.339844 48.171875 L 52.675781 39.589844 C 52.679688 39.457031 52.792969 39.347656 52.925781 39.347656 L 54.195312 39.351562 C 54.292969 39.351562 54.371094 39.273438 54.371094 39.175781 L 54.371094 39.089844 C 54.371094 39.042969 54.40625 39.011719 54.449219 39.011719 C 54.738281 39.027344 54.957031 39 55.121094 38.953125 C 55.410156 38.867188 55.605469 38.601562 55.605469 38.300781 L 55.605469 38.179688 C 55.605469 38.132812 55.628906 38.09375 55.664062 38.066406 C 55.753906 37.996094 55.800781 37.917969 55.824219 37.863281 C 55.84375 37.828125 55.851562 37.789062 55.851562 37.746094 L 55.851562 32.75 C 55.847656 32.554688 55.757812 32.371094 55.597656 32.257812 Z M 37.703125 43.902344 L 38.300781 44.207031 L 36.890625 47.535156 L 36.964844 44.199219 C 36.964844 44.035156 37.089844 43.902344 37.253906 43.882812 L 37.480469 43.863281 C 37.558594 43.855469 37.632812 43.867188 37.703125 43.902344 Z M 35.945312 49.773438 L 35.640625 50.492188 L 35.707031 44.117188 C 35.710938 44.070312 35.742188 44.035156 35.785156 44.03125 C 35.835938 44.027344 35.878906 44.066406 35.878906 44.117188 Z M 35.699219 50.726562 L 35.949219 50.136719 L 35.957031 50.871094 Z M 36.871094 51.375 L 36.8125 51.339844 L 36.882812 47.929688 L 38.441406 44.257812 C 38.46875 44.261719 38.5 44.265625 38.535156 44.265625 L 39.363281 44.265625 C 39.425781 44.265625 39.480469 44.296875 39.515625 44.34375 Z M 45.597656 31.140625 C 45.175781 31.136719 44.816406 31.136719 44.546875 31.136719 C 44.507812 31.136719 44.503906 31.078125 44.542969 31.070312 C 44.90625 31.019531 45.257812 30.964844 45.597656 30.902344 Z M 45.597656 31.140625 " fill-opacity="1" fill-rule="evenodd"/></g><path fill="#2e3b40" d="M 35.117188 40.53125 L 34.839844 40.53125 L 34.839844 40.433594 L 34.558594 40.433594 L 34.558594 40.335938 L 34.28125 40.335938 L 34.28125 40.238281 L 34 40.238281 L 34 40.140625 L 33.722656 40.140625 L 33.722656 40.042969 L 33.441406 40.042969 L 33.441406 39.945312 L 33.164062 39.945312 L 33.164062 39.847656 L 32.882812 39.847656 L 32.882812 39.75 L 32.605469 39.75 L 32.605469 39.652344 L 32.324219 39.652344 L 32.324219 39.554688 L 32.046875 39.554688 L 32.046875 39.457031 L 31.765625 39.457031 L 31.765625 39.359375 L 31.488281 39.359375 L 31.488281 39.261719 L 31.207031 39.261719 L 31.207031 39.164062 L 30.929688 39.164062 L 30.929688 39.066406 L 30.648438 39.066406 L 30.648438 38.96875 L 30.371094 38.96875 L 30.371094 38.871094 L 30.089844 38.871094 L 30.089844 38.773438 L 29.8125 38.773438 L 29.8125 38.675781 L 29.53125 38.675781 L 29.53125 38.578125 L 29.253906 38.578125 L 29.253906 38.480469 L 28.972656 38.480469 L 28.972656 38.382812 L 28.695312 38.382812 L 28.695312 38.285156 L 28.414062 38.285156 L 28.414062 38.1875 L 28.136719 38.1875 L 28.136719 38.089844 L 27.855469 38.089844 L 27.855469 37.988281 L 27.578125 37.988281 L 27.578125 37.894531 L 27.296875 37.894531 L 27.296875 37.792969 L 27.019531 37.792969 L 27.019531 37.695312 L 26.738281 37.695312 L 26.738281 37.597656 L 26.460938 37.597656 L 26.460938 37.5 L 26.128906 37.5 L 26.128906 37.414062 L 24.96875 37.414062 L 24.96875 37.960938 L 35.117188 41.703125 Z M 35.117188 40.53125 " fill-opacity="1" fill-rule="evenodd"/><g fill="#d7dadb" fill-opacity="1"><g transform="translate(86.25, 43.124995)"><g><path d="M 3.0625 -0.90625 L 3.0625 -11.671875 L 2.296875 -11.671875 C 2.085938 -11.671875 1.9375 -11.707031 1.84375 -11.78125 C 1.75 -11.863281 1.703125 -11.976562 1.703125 -12.125 C 1.703125 -12.257812 1.75 -12.363281 1.84375 -12.4375 C 1.9375 -12.519531 2.085938 -12.5625 2.296875 -12.5625 L 7.15625 -12.5625 C 7.914062 -12.5625 8.609375 -12.40625 9.234375 -12.09375 C 9.859375 -11.78125 10.335938 -11.421875 10.671875 -11.015625 C 11.234375 -10.335938 11.660156 -9.617188 11.953125 -8.859375 C 12.160156 -8.304688 12.265625 -7.65625 12.265625 -6.90625 L 12.265625 -5.65625 C 12.265625 -4.738281 12.0625 -3.84375 11.65625 -2.96875 C 11.25 -2.101562 10.566406 -1.347656 9.609375 -0.703125 C 8.898438 -0.234375 8.082031 0 7.15625 0 L 2.296875 0 C 2.085938 0 1.9375 -0.0390625 1.84375 -0.125 C 1.75 -0.21875 1.703125 -0.328125 1.703125 -0.453125 C 1.703125 -0.585938 1.75 -0.695312 1.84375 -0.78125 C 1.9375 -0.863281 2.085938 -0.90625 2.296875 -0.90625 Z M 3.96875 -0.90625 L 7.234375 -0.90625 C 7.992188 -0.90625 8.703125 -1.148438 9.359375 -1.640625 C 10.023438 -2.140625 10.523438 -2.734375 10.859375 -3.421875 C 11.191406 -4.109375 11.359375 -4.789062 11.359375 -5.46875 L 11.359375 -7.09375 C 11.359375 -7.65625 11.269531 -8.15625 11.09375 -8.59375 C 10.832031 -9.226562 10.46875 -9.832031 10 -10.40625 C 9.738281 -10.71875 9.359375 -11.003906 8.859375 -11.265625 C 8.359375 -11.535156 7.816406 -11.671875 7.234375 -11.671875 L 3.96875 -11.671875 Z M 3.96875 -0.90625 "/></g></g></g><g fill="#d7dadb" fill-opacity="1"><g transform="translate(99.44981, 43.124995)"><g><path d="M 9.203125 0 L 9.203125 -1.296875 C 7.890625 -0.191406 6.488281 0.359375 5 0.359375 C 3.914062 0.359375 3.066406 0.0820312 2.453125 -0.46875 C 1.847656 -1.019531 1.546875 -1.691406 1.546875 -2.484375 C 1.546875 -3.359375 1.945312 -4.117188 2.75 -4.765625 C 3.550781 -5.421875 4.722656 -5.75 6.265625 -5.75 C 6.679688 -5.75 7.128906 -5.722656 7.609375 -5.671875 C 8.097656 -5.617188 8.628906 -5.535156 9.203125 -5.421875 L 9.203125 -6.875 C 9.203125 -7.363281 8.972656 -7.789062 8.515625 -8.15625 C 8.054688 -8.53125 7.367188 -8.71875 6.453125 -8.71875 C 5.742188 -8.71875 4.753906 -8.507812 3.484375 -8.09375 C 3.253906 -8.03125 3.109375 -8 3.046875 -8 C 2.929688 -8 2.832031 -8.039062 2.75 -8.125 C 2.664062 -8.207031 2.625 -8.3125 2.625 -8.4375 C 2.625 -8.5625 2.660156 -8.660156 2.734375 -8.734375 C 2.835938 -8.835938 3.242188 -8.984375 3.953125 -9.171875 C 5.066406 -9.472656 5.910156 -9.625 6.484375 -9.625 C 7.628906 -9.625 8.519531 -9.34375 9.15625 -8.78125 C 9.789062 -8.21875 10.109375 -7.582031 10.109375 -6.875 L 10.109375 -0.90625 L 11.3125 -0.90625 C 11.53125 -0.90625 11.6875 -0.863281 11.78125 -0.78125 C 11.875 -0.695312 11.921875 -0.585938 11.921875 -0.453125 C 11.921875 -0.328125 11.875 -0.21875 11.78125 -0.125 C 11.6875 -0.0390625 11.53125 0 11.3125 0 Z M 9.203125 -4.484375 C 8.773438 -4.609375 8.320312 -4.695312 7.84375 -4.75 C 7.375 -4.8125 6.878906 -4.84375 6.359375 -4.84375 C 5.046875 -4.84375 4.019531 -4.5625 3.28125 -4 C 2.726562 -3.570312 2.453125 -3.066406 2.453125 -2.484375 C 2.453125 -1.941406 2.664062 -1.484375 3.09375 -1.109375 C 3.519531 -0.734375 4.140625 -0.546875 4.953125 -0.546875 C 5.734375 -0.546875 6.457031 -0.703125 7.125 -1.015625 C 7.789062 -1.328125 8.484375 -1.820312 9.203125 -2.5 Z M 9.203125 -4.484375 "/></g></g></g><g fill="#d7dadb" fill-opacity="1"><g transform="translate(112.649619, 43.124995)"><g><path d="M 5.515625 -9.296875 L 5.515625 -7.03125 C 6.691406 -8.082031 7.570312 -8.757812 8.15625 -9.0625 C 8.738281 -9.375 9.28125 -9.53125 9.78125 -9.53125 C 10.3125 -9.53125 10.804688 -9.347656 11.265625 -8.984375 C 11.734375 -8.617188 11.96875 -8.347656 11.96875 -8.171875 C 11.96875 -8.023438 11.921875 -7.90625 11.828125 -7.8125 C 11.742188 -7.726562 11.632812 -7.6875 11.5 -7.6875 C 11.425781 -7.6875 11.363281 -7.695312 11.3125 -7.71875 C 11.257812 -7.75 11.164062 -7.832031 11.03125 -7.96875 C 10.78125 -8.21875 10.5625 -8.390625 10.375 -8.484375 C 10.1875 -8.578125 10.003906 -8.625 9.828125 -8.625 C 9.429688 -8.625 8.957031 -8.46875 8.40625 -8.15625 C 7.851562 -7.84375 6.890625 -7.070312 5.515625 -5.84375 L 5.515625 -0.90625 L 9.515625 -0.90625 C 9.734375 -0.90625 9.890625 -0.863281 9.984375 -0.78125 C 10.078125 -0.695312 10.125 -0.585938 10.125 -0.453125 C 10.125 -0.328125 10.078125 -0.21875 9.984375 -0.125 C 9.890625 -0.0390625 9.734375 0 9.515625 0 L 2.4375 0 C 2.21875 0 2.0625 -0.0390625 1.96875 -0.125 C 1.882812 -0.207031 1.84375 -0.3125 1.84375 -0.4375 C 1.84375 -0.5625 1.882812 -0.664062 1.96875 -0.75 C 2.0625 -0.832031 2.21875 -0.875 2.4375 -0.875 L 4.625 -0.875 L 4.625 -8.390625 L 2.953125 -8.390625 C 2.734375 -8.390625 2.578125 -8.429688 2.484375 -8.515625 C 2.398438 -8.597656 2.359375 -8.710938 2.359375 -8.859375 C 2.359375 -8.984375 2.398438 -9.085938 2.484375 -9.171875 C 2.578125 -9.253906 2.734375 -9.296875 2.953125 -9.296875 Z M 5.515625 -9.296875 "/></g></g></g><g fill="#d7dadb" fill-opacity="1"><g transform="translate(125.849428, 43.124995)"><g><path d="M 10.359375 -8.390625 L 10.359375 -8.6875 C 10.359375 -8.914062 10.398438 -9.070312 10.484375 -9.15625 C 10.578125 -9.25 10.6875 -9.296875 10.8125 -9.296875 C 10.945312 -9.296875 11.054688 -9.25 11.140625 -9.15625 C 11.234375 -9.070312 11.28125 -8.914062 11.28125 -8.6875 L 11.28125 -6.65625 C 11.269531 -6.425781 11.222656 -6.265625 11.140625 -6.171875 C 11.054688 -6.078125 10.945312 -6.03125 10.8125 -6.03125 C 10.695312 -6.03125 10.597656 -6.070312 10.515625 -6.15625 C 10.429688 -6.238281 10.378906 -6.378906 10.359375 -6.578125 C 10.316406 -7.085938 9.984375 -7.570312 9.359375 -8.03125 C 8.734375 -8.488281 7.890625 -8.71875 6.828125 -8.71875 C 5.492188 -8.71875 4.476562 -8.296875 3.78125 -7.453125 C 3.082031 -6.617188 2.734375 -5.660156 2.734375 -4.578125 C 2.734375 -3.410156 3.113281 -2.445312 3.875 -1.6875 C 4.644531 -0.925781 5.640625 -0.546875 6.859375 -0.546875 C 7.566406 -0.546875 8.28125 -0.675781 9 -0.9375 C 9.726562 -1.195312 10.390625 -1.613281 10.984375 -2.1875 C 11.128906 -2.320312 11.257812 -2.390625 11.375 -2.390625 C 11.5 -2.390625 11.601562 -2.347656 11.6875 -2.265625 C 11.769531 -2.191406 11.8125 -2.09375 11.8125 -1.96875 C 11.8125 -1.65625 11.445312 -1.265625 10.71875 -0.796875 C 9.550781 -0.0234375 8.253906 0.359375 6.828125 0.359375 C 5.367188 0.359375 4.171875 -0.101562 3.234375 -1.03125 C 2.304688 -1.957031 1.84375 -3.132812 1.84375 -4.5625 C 1.84375 -6.019531 2.316406 -7.226562 3.265625 -8.1875 C 4.222656 -9.144531 5.429688 -9.625 6.890625 -9.625 C 8.265625 -9.625 9.421875 -9.210938 10.359375 -8.390625 Z M 10.359375 -8.390625 "/></g></g></g><g fill="#d7dadb" fill-opacity="1"><g transform="translate(139.049237, 43.124995)"><g><path d="M 6.65625 0 L 2.46875 -8.390625 L 2.203125 -8.390625 C 1.984375 -8.390625 1.828125 -8.429688 1.734375 -8.515625 C 1.640625 -8.597656 1.59375 -8.707031 1.59375 -8.84375 C 1.59375 -8.9375 1.613281 -9.019531 1.65625 -9.09375 C 1.707031 -9.164062 1.769531 -9.21875 1.84375 -9.25 C 1.925781 -9.28125 2.046875 -9.296875 2.203125 -9.296875 L 4.671875 -9.296875 C 4.890625 -9.296875 5.046875 -9.253906 5.140625 -9.171875 C 5.234375 -9.085938 5.28125 -8.976562 5.28125 -8.84375 C 5.28125 -8.707031 5.234375 -8.597656 5.140625 -8.515625 C 5.046875 -8.429688 4.890625 -8.390625 4.671875 -8.390625 L 3.453125 -8.390625 L 7.140625 -0.984375 L 10.78125 -8.390625 L 9.5625 -8.390625 C 9.34375 -8.390625 9.1875 -8.429688 9.09375 -8.515625 C 9 -8.597656 8.953125 -8.710938 8.953125 -8.859375 C 8.953125 -8.984375 9 -9.085938 9.09375 -9.171875 C 9.1875 -9.253906 9.34375 -9.296875 9.5625 -9.296875 L 12.015625 -9.296875 C 12.242188 -9.296875 12.40625 -9.253906 12.5 -9.171875 C 12.59375 -9.085938 12.640625 -8.976562 12.640625 -8.84375 C 12.640625 -8.75 12.609375 -8.660156 12.546875 -8.578125 C 12.492188 -8.503906 12.429688 -8.453125 12.359375 -8.421875 C 12.285156 -8.398438 12.082031 -8.390625 11.75 -8.390625 L 6.03125 3.25 L 7.4375 3.25 C 7.65625 3.25 7.8125 3.285156 7.90625 3.359375 C 8 3.441406 8.046875 3.554688 8.046875 3.703125 C 8.046875 3.828125 8 3.929688 7.90625 4.015625 C 7.8125 4.097656 7.65625 4.140625 7.4375 4.140625 L 2.25 4.140625 C 2.03125 4.140625 1.875 4.097656 1.78125 4.015625 C 1.6875 3.941406 1.640625 3.835938 1.640625 3.703125 C 1.640625 3.554688 1.6875 3.441406 1.78125 3.359375 C 1.875 3.285156 2.03125 3.25 2.25 3.25 L 5.078125 3.25 Z M 6.65625 0 "/></g></g></g><g fill="#d7dadb" fill-opacity="1"><g transform="translate(152.249046, 43.124995)"><g><path d="M 5.171875 -13.484375 L 8.03125 -13.484375 L 7.265625 -7.84375 C 7.222656 -7.539062 7.144531 -7.328125 7.03125 -7.203125 C 6.914062 -7.085938 6.769531 -7.03125 6.59375 -7.03125 C 6.414062 -7.03125 6.269531 -7.085938 6.15625 -7.203125 C 6.039062 -7.328125 5.960938 -7.539062 5.921875 -7.84375 Z M 5.171875 -13.484375 "/></g></g></g><g fill="#d7dadb" fill-opacity="1"><g transform="translate(165.448855, 43.124995)"><g><path d="M 9.578125 -8.71875 C 9.578125 -8.925781 9.617188 -9.070312 9.703125 -9.15625 C 9.796875 -9.25 9.90625 -9.296875 10.03125 -9.296875 C 10.164062 -9.296875 10.273438 -9.25 10.359375 -9.15625 C 10.453125 -9.070312 10.5 -8.914062 10.5 -8.6875 L 10.5 -7.140625 C 10.5 -6.929688 10.453125 -6.78125 10.359375 -6.6875 C 10.273438 -6.59375 10.164062 -6.546875 10.03125 -6.546875 C 9.90625 -6.546875 9.800781 -6.582031 9.71875 -6.65625 C 9.644531 -6.738281 9.597656 -6.867188 9.578125 -7.046875 C 9.535156 -7.472656 9.316406 -7.828125 8.921875 -8.109375 C 8.328125 -8.515625 7.546875 -8.71875 6.578125 -8.71875 C 5.578125 -8.71875 4.796875 -8.507812 4.234375 -8.09375 C 3.804688 -7.789062 3.59375 -7.445312 3.59375 -7.0625 C 3.59375 -6.632812 3.84375 -6.28125 4.34375 -6 C 4.6875 -5.789062 5.34375 -5.632812 6.3125 -5.53125 C 7.5625 -5.394531 8.429688 -5.242188 8.921875 -5.078125 C 9.609375 -4.816406 10.125 -4.460938 10.46875 -4.015625 C 10.8125 -3.578125 10.984375 -3.101562 10.984375 -2.59375 C 10.984375 -1.820312 10.613281 -1.132812 9.875 -0.53125 C 9.132812 0.0625 8.050781 0.359375 6.625 0.359375 C 5.195312 0.359375 4.03125 -0.00390625 3.125 -0.734375 C 3.125 -0.484375 3.109375 -0.320312 3.078125 -0.25 C 3.054688 -0.1875 3.003906 -0.128906 2.921875 -0.078125 C 2.847656 -0.0234375 2.765625 0 2.671875 0 C 2.546875 0 2.4375 -0.046875 2.34375 -0.140625 C 2.257812 -0.234375 2.21875 -0.390625 2.21875 -0.609375 L 2.21875 -2.453125 C 2.21875 -2.671875 2.257812 -2.828125 2.34375 -2.921875 C 2.425781 -3.015625 2.535156 -3.0625 2.671875 -3.0625 C 2.804688 -3.0625 2.914062 -3.015625 3 -2.921875 C 3.09375 -2.835938 3.140625 -2.71875 3.140625 -2.5625 C 3.140625 -2.238281 3.222656 -1.960938 3.390625 -1.734375 C 3.640625 -1.390625 4.035156 -1.101562 4.578125 -0.875 C 5.128906 -0.65625 5.800781 -0.546875 6.59375 -0.546875 C 7.769531 -0.546875 8.644531 -0.765625 9.21875 -1.203125 C 9.789062 -1.640625 10.078125 -2.101562 10.078125 -2.59375 C 10.078125 -3.144531 9.785156 -3.59375 9.203125 -3.9375 C 8.617188 -4.269531 7.765625 -4.492188 6.640625 -4.609375 C 5.523438 -4.722656 4.722656 -4.875 4.234375 -5.0625 C 3.742188 -5.25 3.363281 -5.523438 3.09375 -5.890625 C 2.820312 -6.265625 2.6875 -6.664062 2.6875 -7.09375 C 2.6875 -7.875 3.066406 -8.488281 3.828125 -8.9375 C 4.585938 -9.394531 5.492188 -9.625 6.546875 -9.625 C 7.785156 -9.625 8.796875 -9.320312 9.578125 -8.71875 Z M 9.578125 -8.71875 "/></g></g></g><g fill="#d7dadb" fill-opacity="1"><g transform="translate(178.648665, 43.124995)"><g/></g></g><g fill="#d7dadb" fill-opacity="1"><g transform="translate(191.848474, 43.124995)"><g><path d="M 4.640625 -5.15625 L 4.640625 -0.90625 L 7.734375 -0.90625 C 7.953125 -0.90625 8.109375 -0.863281 8.203125 -0.78125 C 8.296875 -0.695312 8.34375 -0.585938 8.34375 -0.453125 C 8.34375 -0.328125 8.296875 -0.21875 8.203125 -0.125 C 8.109375 -0.0390625 7.953125 0 7.734375 0 L 2.53125 0 C 2.3125 0 2.15625 -0.0390625 2.0625 -0.125 C 1.96875 -0.21875 1.921875 -0.328125 1.921875 -0.453125 C 1.921875 -0.585938 1.96875 -0.695312 2.0625 -0.78125 C 2.15625 -0.863281 2.3125 -0.90625 2.53125 -0.90625 L 3.734375 -0.90625 L 3.734375 -11.671875 L 2.53125 -11.671875 C 2.3125 -11.671875 2.15625 -11.707031 2.0625 -11.78125 C 1.96875 -11.863281 1.921875 -11.976562 1.921875 -12.125 C 1.921875 -12.257812 1.96875 -12.363281 2.0625 -12.4375 C 2.15625 -12.519531 2.3125 -12.5625 2.53125 -12.5625 L 7.765625 -12.5625 C 9.003906 -12.5625 10.015625 -12.195312 10.796875 -11.46875 C 11.585938 -10.738281 11.984375 -9.882812 11.984375 -8.90625 C 11.984375 -8.320312 11.851562 -7.796875 11.59375 -7.328125 C 11.34375 -6.867188 11.035156 -6.503906 10.671875 -6.234375 C 10.140625 -5.835938 9.585938 -5.546875 9.015625 -5.359375 C 8.597656 -5.222656 8.082031 -5.15625 7.46875 -5.15625 Z M 4.640625 -6.0625 L 7.515625 -6.0625 C 8.179688 -6.0625 8.804688 -6.207031 9.390625 -6.5 C 9.972656 -6.800781 10.398438 -7.164062 10.671875 -7.59375 C 10.941406 -8.019531 11.078125 -8.457031 11.078125 -8.90625 C 11.078125 -9.613281 10.769531 -10.25 10.15625 -10.8125 C 9.550781 -11.382812 8.785156 -11.671875 7.859375 -11.671875 L 4.640625 -11.671875 Z M 4.640625 -6.0625 "/></g></g></g><g fill="#d7dadb" fill-opacity="1"><g transform="translate(205.048283, 43.124995)"><g><path d="M 7.046875 -13.9375 L 7.046875 -11.609375 L 5.71875 -11.609375 L 5.71875 -13.9375 Z M 7.078125 -9.296875 L 7.078125 -0.90625 L 10.625 -0.90625 C 10.84375 -0.90625 11 -0.863281 11.09375 -0.78125 C 11.1875 -0.695312 11.234375 -0.585938 11.234375 -0.453125 C 11.234375 -0.328125 11.1875 -0.21875 11.09375 -0.125 C 11 -0.0390625 10.84375 0 10.625 0 L 2.625 0 C 2.414062 0 2.265625 -0.0390625 2.171875 -0.125 C 2.078125 -0.21875 2.03125 -0.328125 2.03125 -0.453125 C 2.03125 -0.585938 2.078125 -0.695312 2.171875 -0.78125 C 2.265625 -0.863281 2.414062 -0.90625 2.625 -0.90625 L 6.171875 -0.90625 L 6.171875 -8.390625 L 3.546875 -8.390625 C 3.328125 -8.390625 3.171875 -8.429688 3.078125 -8.515625 C 2.984375 -8.597656 2.9375 -8.707031 2.9375 -8.84375 C 2.9375 -8.976562 2.984375 -9.085938 3.078125 -9.171875 C 3.171875 -9.253906 3.328125 -9.296875 3.546875 -9.296875 Z M 7.078125 -9.296875 "/></g></g></g><g fill="#d7dadb" fill-opacity="1"><g transform="translate(218.248092, 43.124995)"><g><path d="M 9.203125 0 L 9.203125 -1.296875 C 7.890625 -0.191406 6.488281 0.359375 5 0.359375 C 3.914062 0.359375 3.066406 0.0820312 2.453125 -0.46875 C 1.847656 -1.019531 1.546875 -1.691406 1.546875 -2.484375 C 1.546875 -3.359375 1.945312 -4.117188 2.75 -4.765625 C 3.550781 -5.421875 4.722656 -5.75 6.265625 -5.75 C 6.679688 -5.75 7.128906 -5.722656 7.609375 -5.671875 C 8.097656 -5.617188 8.628906 -5.535156 9.203125 -5.421875 L 9.203125 -6.875 C 9.203125 -7.363281 8.972656 -7.789062 8.515625 -8.15625 C 8.054688 -8.53125 7.367188 -8.71875 6.453125 -8.71875 C 5.742188 -8.71875 4.753906 -8.507812 3.484375 -8.09375 C 3.253906 -8.03125 3.109375 -8 3.046875 -8 C 2.929688 -8 2.832031 -8.039062 2.75 -8.125 C 2.664062 -8.207031 2.625 -8.3125 2.625 -8.4375 C 2.625 -8.5625 2.660156 -8.660156 2.734375 -8.734375 C 2.835938 -8.835938 3.242188 -8.984375 3.953125 -9.171875 C 5.066406 -9.472656 5.910156 -9.625 6.484375 -9.625 C 7.628906 -9.625 8.519531 -9.34375 9.15625 -8.78125 C 9.789062 -8.21875 10.109375 -7.582031 10.109375 -6.875 L 10.109375 -0.90625 L 11.3125 -0.90625 C 11.53125 -0.90625 11.6875 -0.863281 11.78125 -0.78125 C 11.875 -0.695312 11.921875 -0.585938 11.921875 -0.453125 C 11.921875 -0.328125 11.875 -0.21875 11.78125 -0.125 C 11.6875 -0.0390625 11.53125 0 11.3125 0 Z M 9.203125 -4.484375 C 8.773438 -4.609375 8.320312 -4.695312 7.84375 -4.75 C 7.375 -4.8125 6.878906 -4.84375 6.359375 -4.84375 C 5.046875 -4.84375 4.019531 -4.5625 3.28125 -4 C 2.726562 -3.570312 2.453125 -3.066406 2.453125 -2.484375 C 2.453125 -1.941406 2.664062 -1.484375 3.09375 -1.109375 C 3.519531 -0.734375 4.140625 -0.546875 4.953125 -0.546875 C 5.734375 -0.546875 6.457031 -0.703125 7.125 -1.015625 C 7.789062 -1.328125 8.484375 -1.820312 9.203125 -2.5 Z M 9.203125 -4.484375 "/></g></g></g><g fill="#d7dadb" fill-opacity="1"><g transform="translate(231.447901, 43.124995)"><g><path d="M 3.6875 -9.296875 L 3.6875 -7.9375 C 4.3125 -8.570312 4.878906 -9.007812 5.390625 -9.25 C 5.898438 -9.5 6.472656 -9.625 7.109375 -9.625 C 7.796875 -9.625 8.421875 -9.476562 8.984375 -9.1875 C 9.390625 -8.96875 9.753906 -8.609375 10.078125 -8.109375 C 10.410156 -7.617188 10.578125 -7.109375 10.578125 -6.578125 L 10.578125 -0.90625 L 11.328125 -0.90625 C 11.546875 -0.90625 11.703125 -0.863281 11.796875 -0.78125 C 11.890625 -0.695312 11.9375 -0.585938 11.9375 -0.453125 C 11.9375 -0.328125 11.890625 -0.21875 11.796875 -0.125 C 11.703125 -0.0390625 11.546875 0 11.328125 0 L 8.921875 0 C 8.691406 0 8.53125 -0.0390625 8.4375 -0.125 C 8.34375 -0.21875 8.296875 -0.328125 8.296875 -0.453125 C 8.296875 -0.585938 8.34375 -0.695312 8.4375 -0.78125 C 8.53125 -0.863281 8.691406 -0.90625 8.921875 -0.90625 L 9.671875 -0.90625 L 9.671875 -6.4375 C 9.671875 -7.070312 9.4375 -7.609375 8.96875 -8.046875 C 8.5 -8.492188 7.875 -8.71875 7.09375 -8.71875 C 6.5 -8.71875 5.984375 -8.597656 5.546875 -8.359375 C 5.117188 -8.117188 4.5 -7.519531 3.6875 -6.5625 L 3.6875 -0.90625 L 4.703125 -0.90625 C 4.921875 -0.90625 5.078125 -0.863281 5.171875 -0.78125 C 5.265625 -0.695312 5.3125 -0.585938 5.3125 -0.453125 C 5.3125 -0.328125 5.265625 -0.21875 5.171875 -0.125 C 5.078125 -0.0390625 4.921875 0 4.703125 0 L 1.765625 0 C 1.546875 0 1.390625 -0.0390625 1.296875 -0.125 C 1.203125 -0.21875 1.15625 -0.328125 1.15625 -0.453125 C 1.15625 -0.585938 1.203125 -0.695312 1.296875 -0.78125 C 1.390625 -0.863281 1.546875 -0.90625 1.765625 -0.90625 L 2.78125 -0.90625 L 2.78125 -8.390625 L 2.015625 -8.390625 C 1.804688 -8.390625 1.65625 -8.429688 1.5625 -8.515625 C 1.46875 -8.597656 1.421875 -8.710938 1.421875 -8.859375 C 1.421875 -8.984375 1.46875 -9.085938 1.5625 -9.171875 C 1.65625 -9.253906 1.804688 -9.296875 2.015625 -9.296875 Z M 3.6875 -9.296875 "/></g></g></g><g fill="#d7dadb" fill-opacity="1"><g transform="translate(244.647711, 43.124995)"><g><path d="M 11.640625 -4.625 C 11.640625 -3.25 11.144531 -2.070312 10.15625 -1.09375 C 9.175781 -0.125 7.992188 0.359375 6.609375 0.359375 C 5.203125 0.359375 4.007812 -0.128906 3.03125 -1.109375 C 2.050781 -2.085938 1.5625 -3.257812 1.5625 -4.625 C 1.5625 -6 2.050781 -7.175781 3.03125 -8.15625 C 4.007812 -9.132812 5.203125 -9.625 6.609375 -9.625 C 7.992188 -9.625 9.175781 -9.132812 10.15625 -8.15625 C 11.144531 -7.1875 11.640625 -6.007812 11.640625 -4.625 Z M 10.734375 -4.625 C 10.734375 -5.757812 10.328125 -6.722656 9.515625 -7.515625 C 8.710938 -8.316406 7.738281 -8.71875 6.59375 -8.71875 C 5.445312 -8.71875 4.46875 -8.316406 3.65625 -7.515625 C 2.851562 -6.710938 2.453125 -5.75 2.453125 -4.625 C 2.453125 -3.507812 2.851562 -2.550781 3.65625 -1.75 C 4.46875 -0.945312 5.445312 -0.546875 6.59375 -0.546875 C 7.738281 -0.546875 8.710938 -0.941406 9.515625 -1.734375 C 10.328125 -2.535156 10.734375 -3.5 10.734375 -4.625 Z M 10.734375 -4.625 "/></g></g></g><g fill="#d7dadb" fill-opacity="1"><g transform="translate(257.84752, 43.124995)"><g/></g></g><g fill="#d7dadb" fill-opacity="1"><g transform="translate(271.047329, 43.124995)"><g><path d="M 7.046875 -11.671875 L 7.046875 -0.90625 L 9.390625 -0.90625 C 9.609375 -0.90625 9.757812 -0.863281 9.84375 -0.78125 C 9.9375 -0.695312 9.984375 -0.585938 9.984375 -0.453125 C 9.984375 -0.328125 9.9375 -0.21875 9.84375 -0.125 C 9.757812 -0.0390625 9.609375 0 9.390625 0 L 3.796875 0 C 3.578125 0 3.421875 -0.0390625 3.328125 -0.125 C 3.234375 -0.21875 3.1875 -0.328125 3.1875 -0.453125 C 3.1875 -0.585938 3.234375 -0.695312 3.328125 -0.78125 C 3.421875 -0.863281 3.578125 -0.90625 3.796875 -0.90625 L 6.140625 -0.90625 L 6.140625 -11.671875 L 2.4375 -11.671875 L 2.4375 -8.546875 C 2.4375 -8.316406 2.394531 -8.15625 2.3125 -8.0625 C 2.226562 -7.96875 2.117188 -7.921875 1.984375 -7.921875 C 1.859375 -7.921875 1.75 -7.96875 1.65625 -8.0625 C 1.570312 -8.15625 1.53125 -8.316406 1.53125 -8.546875 L 1.53125 -12.5625 L 11.640625 -12.5625 L 11.640625 -8.546875 C 11.640625 -8.316406 11.597656 -8.15625 11.515625 -8.0625 C 11.429688 -7.96875 11.320312 -7.921875 11.1875 -7.921875 C 11.050781 -7.921875 10.941406 -7.96875 10.859375 -8.0625 C 10.785156 -8.15625 10.75 -8.316406 10.75 -8.546875 L 10.75 -11.671875 Z M 7.046875 -11.671875 "/></g></g></g><g fill="#d7dadb" fill-opacity="1"><g transform="translate(284.247149, 43.124995)"><g><path d="M 9.6875 0 L 9.6875 -1.328125 C 8.457031 -0.203125 7.125 0.359375 5.6875 0.359375 C 4.8125 0.359375 4.144531 0.117188 3.6875 -0.359375 C 3.09375 -0.992188 2.796875 -1.726562 2.796875 -2.5625 L 2.796875 -8.390625 L 1.578125 -8.390625 C 1.359375 -8.390625 1.203125 -8.429688 1.109375 -8.515625 C 1.023438 -8.597656 0.984375 -8.710938 0.984375 -8.859375 C 0.984375 -8.984375 1.023438 -9.085938 1.109375 -9.171875 C 1.203125 -9.253906 1.359375 -9.296875 1.578125 -9.296875 L 3.703125 -9.296875 L 3.703125 -2.5625 C 3.703125 -1.976562 3.882812 -1.492188 4.25 -1.109375 C 4.625 -0.734375 5.09375 -0.546875 5.65625 -0.546875 C 7.125 -0.546875 8.46875 -1.21875 9.6875 -2.5625 L 9.6875 -8.390625 L 8.03125 -8.390625 C 7.8125 -8.390625 7.65625 -8.429688 7.5625 -8.515625 C 7.46875 -8.597656 7.421875 -8.710938 7.421875 -8.859375 C 7.421875 -8.984375 7.46875 -9.085938 7.5625 -9.171875 C 7.65625 -9.253906 7.8125 -9.296875 8.03125 -9.296875 L 10.59375 -9.296875 L 10.59375 -0.90625 L 11.359375 -0.90625 C 11.566406 -0.90625 11.71875 -0.863281 11.8125 -0.78125 C 11.90625 -0.695312 11.953125 -0.585938 11.953125 -0.453125 C 11.953125 -0.328125 11.90625 -0.21875 11.8125 -0.125 C 11.71875 -0.0390625 11.566406 0 11.359375 0 Z M 9.6875 0 "/></g></g></g><g fill="#d7dadb" fill-opacity="1"><g transform="translate(297.446946, 43.124995)"><g><path d="M 7.046875 -13.9375 L 7.046875 -11.609375 L 5.71875 -11.609375 L 5.71875 -13.9375 Z M 7.078125 -9.296875 L 7.078125 -0.90625 L 10.625 -0.90625 C 10.84375 -0.90625 11 -0.863281 11.09375 -0.78125 C 11.1875 -0.695312 11.234375 -0.585938 11.234375 -0.453125 C 11.234375 -0.328125 11.1875 -0.21875 11.09375 -0.125 C 11 -0.0390625 10.84375 0 10.625 0 L 2.625 0 C 2.414062 0 2.265625 -0.0390625 2.171875 -0.125 C 2.078125 -0.21875 2.03125 -0.328125 2.03125 -0.453125 C 2.03125 -0.585938 2.078125 -0.695312 2.171875 -0.78125 C 2.265625 -0.863281 2.414062 -0.90625 2.625 -0.90625 L 6.171875 -0.90625 L 6.171875 -8.390625 L 3.546875 -8.390625 C 3.328125 -8.390625 3.171875 -8.429688 3.078125 -8.515625 C 2.984375 -8.597656 2.9375 -8.707031 2.9375 -8.84375 C 2.9375 -8.976562 2.984375 -9.085938 3.078125 -9.171875 C 3.171875 -9.253906 3.328125 -9.296875 3.546875 -9.296875 Z M 7.078125 -9.296875 "/></g></g></g><g fill="#d7dadb" fill-opacity="1"><g transform="translate(310.646744, 43.124995)"><g><path d="M 4.75 -9.296875 L 9.640625 -9.296875 C 9.859375 -9.296875 10.015625 -9.253906 10.109375 -9.171875 C 10.203125 -9.085938 10.25 -8.976562 10.25 -8.84375 C 10.25 -8.707031 10.203125 -8.597656 10.109375 -8.515625 C 10.015625 -8.429688 9.859375 -8.390625 9.640625 -8.390625 L 4.75 -8.390625 L 4.75 -2.390625 C 4.75 -1.859375 4.957031 -1.414062 5.375 -1.0625 C 5.789062 -0.71875 6.40625 -0.546875 7.21875 -0.546875 C 7.820312 -0.546875 8.476562 -0.632812 9.1875 -0.8125 C 9.90625 -1 10.457031 -1.207031 10.84375 -1.4375 C 10.988281 -1.53125 11.109375 -1.578125 11.203125 -1.578125 C 11.316406 -1.578125 11.414062 -1.53125 11.5 -1.4375 C 11.59375 -1.351562 11.640625 -1.25 11.640625 -1.125 C 11.640625 -1.019531 11.59375 -0.921875 11.5 -0.828125 C 11.269531 -0.585938 10.710938 -0.328125 9.828125 -0.046875 C 8.941406 0.222656 8.09375 0.359375 7.28125 0.359375 C 6.226562 0.359375 5.390625 0.113281 4.765625 -0.375 C 4.140625 -0.875 3.828125 -1.546875 3.828125 -2.390625 L 3.828125 -8.390625 L 2.171875 -8.390625 C 1.953125 -8.390625 1.796875 -8.429688 1.703125 -8.515625 C 1.609375 -8.597656 1.5625 -8.710938 1.5625 -8.859375 C 1.5625 -8.984375 1.609375 -9.085938 1.703125 -9.171875 C 1.796875 -9.253906 1.953125 -9.296875 2.171875 -9.296875 L 3.828125 -9.296875 L 3.828125 -11.96875 C 3.828125 -12.1875 3.867188 -12.335938 3.953125 -12.421875 C 4.046875 -12.515625 4.15625 -12.5625 4.28125 -12.5625 C 4.414062 -12.5625 4.523438 -12.515625 4.609375 -12.421875 C 4.703125 -12.335938 4.75 -12.1875 4.75 -11.96875 Z M 4.75 -9.296875 "/></g></g></g><g fill="#d7dadb" fill-opacity="1"><g transform="translate(323.846564, 43.124995)"><g><path d="M 7.046875 -13.9375 L 7.046875 -11.609375 L 5.71875 -11.609375 L 5.71875 -13.9375 Z M 7.078125 -9.296875 L 7.078125 -0.90625 L 10.625 -0.90625 C 10.84375 -0.90625 11 -0.863281 11.09375 -0.78125 C 11.1875 -0.695312 11.234375 -0.585938 11.234375 -0.453125 C 11.234375 -0.328125 11.1875 -0.21875 11.09375 -0.125 C 11 -0.0390625 10.84375 0 10.625 0 L 2.625 0 C 2.414062 0 2.265625 -0.0390625 2.171875 -0.125 C 2.078125 -0.21875 2.03125 -0.328125 2.03125 -0.453125 C 2.03125 -0.585938 2.078125 -0.695312 2.171875 -0.78125 C 2.265625 -0.863281 2.414062 -0.90625 2.625 -0.90625 L 6.171875 -0.90625 L 6.171875 -8.390625 L 3.546875 -8.390625 C 3.328125 -8.390625 3.171875 -8.429688 3.078125 -8.515625 C 2.984375 -8.597656 2.9375 -8.707031 2.9375 -8.84375 C 2.9375 -8.976562 2.984375 -9.085938 3.078125 -9.171875 C 3.171875 -9.253906 3.328125 -9.296875 3.546875 -9.296875 Z M 7.078125 -9.296875 "/></g></g></g><g fill="#d7dadb" fill-opacity="1"><g transform="translate(337.046384, 43.124995)"><g><path d="M 11.640625 -4.625 C 11.640625 -3.25 11.144531 -2.070312 10.15625 -1.09375 C 9.175781 -0.125 7.992188 0.359375 6.609375 0.359375 C 5.203125 0.359375 4.007812 -0.128906 3.03125 -1.109375 C 2.050781 -2.085938 1.5625 -3.257812 1.5625 -4.625 C 1.5625 -6 2.050781 -7.175781 3.03125 -8.15625 C 4.007812 -9.132812 5.203125 -9.625 6.609375 -9.625 C 7.992188 -9.625 9.175781 -9.132812 10.15625 -8.15625 C 11.144531 -7.1875 11.640625 -6.007812 11.640625 -4.625 Z M 10.734375 -4.625 C 10.734375 -5.757812 10.328125 -6.722656 9.515625 -7.515625 C 8.710938 -8.316406 7.738281 -8.71875 6.59375 -8.71875 C 5.445312 -8.71875 4.46875 -8.316406 3.65625 -7.515625 C 2.851562 -6.710938 2.453125 -5.75 2.453125 -4.625 C 2.453125 -3.507812 2.851562 -2.550781 3.65625 -1.75 C 4.46875 -0.945312 5.445312 -0.546875 6.59375 -0.546875 C 7.738281 -0.546875 8.710938 -0.941406 9.515625 -1.734375 C 10.328125 -2.535156 10.734375 -3.5 10.734375 -4.625 Z M 10.734375 -4.625 "/></g></g></g><g fill="#d7dadb" fill-opacity="1"><g transform="translate(350.246182, 43.124995)"><g><path d="M 3.6875 -9.296875 L 3.6875 -7.9375 C 4.3125 -8.570312 4.878906 -9.007812 5.390625 -9.25 C 5.898438 -9.5 6.472656 -9.625 7.109375 -9.625 C 7.796875 -9.625 8.421875 -9.476562 8.984375 -9.1875 C 9.390625 -8.96875 9.753906 -8.609375 10.078125 -8.109375 C 10.410156 -7.617188 10.578125 -7.109375 10.578125 -6.578125 L 10.578125 -0.90625 L 11.328125 -0.90625 C 11.546875 -0.90625 11.703125 -0.863281 11.796875 -0.78125 C 11.890625 -0.695312 11.9375 -0.585938 11.9375 -0.453125 C 11.9375 -0.328125 11.890625 -0.21875 11.796875 -0.125 C 11.703125 -0.0390625 11.546875 0 11.328125 0 L 8.921875 0 C 8.691406 0 8.53125 -0.0390625 8.4375 -0.125 C 8.34375 -0.21875 8.296875 -0.328125 8.296875 -0.453125 C 8.296875 -0.585938 8.34375 -0.695312 8.4375 -0.78125 C 8.53125 -0.863281 8.691406 -0.90625 8.921875 -0.90625 L 9.671875 -0.90625 L 9.671875 -6.4375 C 9.671875 -7.070312 9.4375 -7.609375 8.96875 -8.046875 C 8.5 -8.492188 7.875 -8.71875 7.09375 -8.71875 C 6.5 -8.71875 5.984375 -8.597656 5.546875 -8.359375 C 5.117188 -8.117188 4.5 -7.519531 3.6875 -6.5625 L 3.6875 -0.90625 L 4.703125 -0.90625 C 4.921875 -0.90625 5.078125 -0.863281 5.171875 -0.78125 C 5.265625 -0.695312 5.3125 -0.585938 5.3125 -0.453125 C 5.3125 -0.328125 5.265625 -0.21875 5.171875 -0.125 C 5.078125 -0.0390625 4.921875 0 4.703125 0 L 1.765625 0 C 1.546875 0 1.390625 -0.0390625 1.296875 -0.125 C 1.203125 -0.21875 1.15625 -0.328125 1.15625 -0.453125 C 1.15625 -0.585938 1.203125 -0.695312 1.296875 -0.78125 C 1.390625 -0.863281 1.546875 -0.90625 1.765625 -0.90625 L 2.78125 -0.90625 L 2.78125 -8.390625 L 2.015625 -8.390625 C 1.804688 -8.390625 1.65625 -8.429688 1.5625 -8.515625 C 1.46875 -8.597656 1.421875 -8.710938 1.421875 -8.859375 C 1.421875 -8.984375 1.46875 -9.085938 1.5625 -9.171875 C 1.65625 -9.253906 1.804688 -9.296875 2.015625 -9.296875 Z M 3.6875 -9.296875 "/></g></g></g></svg>